<?xml version="1.0" standalone="no"?>
<svg xmlns="http://www.w3.org/2000/svg" viewBox="0 0 175.33160784313725 53" width="175.33160784313725" height="53"><rect fill="none" stroke="#bae0fd" stroke-width="3" width="172.33160784313725" height="50" x="1.5" y="1.5"></rect><g fill="#ffffff" color="#ffffff" transform="translate(12, 12) scale(0.5686275)"><svg width="44.0" height="51.0" x="0.0" y="0.0" viewBox="0 0 44 51"><path fill="currentColor" fill-rule="evenodd" d="M22 0L0 12.571v25.143l22 12.572 21.994-12.568.006-.01V12.571L22 0zM6.354 13.778L22 4.84l15.645 8.938-4.231 2.419L22 9.678l-11.411 6.52-4.235-2.42zm17.764 10.158v-8.21L31.3 19.83v8.208l-7.182-4.101zm-11.416-4.107l7.18-4.102v8.207l-7.18 4.103v-8.208zm11.416 19.57l11.415-6.522V19.826l4.233-2.42v17.89l-15.648 8.941v-4.838zM4.233 35.296v-17.89l4.233 2.42v13.049l11.416 6.524v4.838l-15.649-8.94zm10.583-3.63l7.182-4.104 7.183 4.104L22 35.768l-7.184-4.102z"></path></svg></g><line x1="47.52" y1="0" x2="47.52" y2="100%" stroke="#bae0fd" stroke-width="3"></line><path fill="#ffffff" fill-rule="nonzero" d="M5.52 18.67Q2.47 18.67 1.24 16.04Q0 13.42 0 9.24L0 9.24Q0 4.80 1.32 2.40Q2.64 0 5.57 0L5.57 0Q11.16 0 11.16 9.14L11.16 9.14Q11.16 13.25 9.90 15.96Q8.64 18.67 5.52 18.67L5.52 18.67ZM5.57 15.84Q6.84 15.84 7.25 14.17Q7.66 12.50 7.66 9.12L7.66 9.12Q7.66 6.41 7.26 4.62Q6.86 2.83 5.57 2.83L5.57 2.83Q4.27 2.83 3.89 4.61Q3.50 6.38 3.50 9.10L3.50 9.10Q3.50 12.50 3.90 14.17Q4.30 15.84 5.57 15.84L5.57 15.84ZM25.15 18.19L22.25 18.48L16.99 7.22L16.99 18.19L13.85 18.34L13.85 0.48L17.52 0.34L22.18 11.04L22.18 0.62L25.15 0.34L25.15 18.19ZM37.56 18.34L28.51 18.34L28.51 0.34L37.66 0.34L37.37 3.14L32.04 3.14L32.04 7.44L35.83 7.44L35.81 10.46L32.04 10.46L32.04 15.53L37.85 15.53L37.56 18.34ZM51.79 18.19L48.29 18.48L48.29 3.14L44.62 3.14L44.88 0.34L55.44 0.34L55.15 3.14L51.79 3.14L51.79 18.19ZM57.19 18.48L57.19 5.11L60.55 4.82L60.55 7.01Q61.27 5.98 62.34 5.34Q63.41 4.70 65.06 4.70L65.06 4.70L65.06 7.99Q64.20 7.99 62.80 8.29Q61.39 8.59 60.55 9.34L60.55 9.34L60.55 18.19L57.19 18.48ZM69.10 18.65Q68.23 18.65 67.54 18.11Q66.84 17.57 66.46 16.64Q66.07 15.72 66.07 14.57L66.07 14.57Q66.07 11.95 67.86 10.88Q69.65 9.82 72.02 9.67L72.02 9.67Q72.02 8.38 71.86 7.75Q71.69 7.13 71.04 7.13L71.04 7.13Q70.49 7.13 70.20 7.56Q69.91 7.99 69.84 8.66L69.84 8.66L66.55 8.09Q66.79 6.24 68.06 5.45Q69.34 4.66 71.04 4.66L71.04 4.66Q73.22 4.66 74.32 5.81Q75.41 6.96 75.41 8.81L75.41 8.81L75.41 15.79Q75.41 16.92 75.77 18.19L75.77 18.19L72.48 18.48L72.10 16.82Q71.66 17.59 70.82 18.12Q69.98 18.65 69.10 18.65L69.10 18.65ZM70.66 16.25Q71.06 16.25 71.34 16.06Q71.62 15.86 72.02 15.43L72.02 15.43L72.02 11.69Q70.82 11.69 70.10 12.34Q69.38 12.98 69.38 14.35L69.38 14.35Q69.38 15.26 69.71 15.76Q70.03 16.25 70.66 16.25L70.66 16.25ZM82.37 18.65Q80.83 18.65 79.74 17.69Q78.65 16.73 78.10 15.14Q77.54 13.56 77.54 11.71L77.54 11.71Q77.54 9.89 78.08 8.28Q78.62 6.67 79.73 5.66Q80.83 4.66 82.44 4.66L82.44 4.66Q83.66 4.66 84.64 5.27Q85.61 5.88 86.16 6.98Q86.71 8.09 86.76 9.50L86.76 9.50L83.57 9.65Q83.57 9.55 83.48 8.88Q83.40 8.21 83.12 7.78Q82.85 7.34 82.42 7.34L82.42 7.34Q81.46 7.34 81.19 8.65Q80.93 9.96 80.93 11.59L80.93 11.59Q80.93 13.20 81.20 14.51Q81.48 15.82 82.51 15.82L82.51 15.82Q83.81 15.82 83.86 13.27L83.86 13.27L86.69 13.58Q86.38 16.08 85.44 17.36Q84.50 18.65 82.37 18.65L82.37 18.65ZM99.05 17.64L96.07 18.65L93.34 11.93L92.23 13.39L92.23 18.34L88.87 18.34L88.87 0.77L92.23 0.34L92.23 9.26L95.66 4.82L99.31 4.82L95.52 9.70L99.05 17.64Z" transform="translate(61.02 17.164)"></path></svg>